<svg width="349" height="54" viewBox="0 0 349 54" fill="none" xmlns="http://www.w3.org/2000/svg">
<path d="M39.9667 46.6478L41.9636 46.5356L41.6217 40.449L38.2915 45.5552L39.9667 46.6478ZM40.3236 53L38.3268 53.1122L38.4328 55H40.3236V53ZM46.6758 53V55H48.6758V53H46.6758ZM46.6758 26.3064H48.6758V24.3064H46.6758V26.3064ZM25.6207 26.3064V24.3064H23.6207V26.3064H25.6207ZM25.6207 33.2296H23.6207V35.2296H25.6207V33.2296ZM39.1103 33.2296H41.1103V31.2296H39.1103V33.2296ZM38.6106 16.9565L36.6859 17.4999L37.0972 18.9565H38.6106V16.9565ZM46.4617 16.9565V18.9565H48.924L48.4192 16.5465L46.4617 16.9565ZM24.8356 -1.67351C16.8721 -1.67351 10.2102 1.19939 5.55508 6.33471C0.918483 11.4496 -1.57408 18.6364 -1.57408 27.0201H2.42592C2.42592 19.4162 4.67968 13.2562 8.51867 9.02117C12.3391 4.80659 17.8821 2.32649 24.8356 2.32649V-1.67351ZM-1.57408 27.0201C-1.57408 35.3225 0.678662 42.5492 5.07392 47.7356C9.50245 52.9613 15.9515 55.9279 23.9077 55.9279V51.9279C17.0184 51.9279 11.7265 49.3987 8.1255 45.1495C4.49126 40.8611 2.42592 34.634 2.42592 27.0201H-1.57408ZM23.9077 55.9279C31.386 55.9279 37.937 53.4212 41.642 47.7403L38.2915 45.5552C35.5729 49.7238 30.5614 51.9279 23.9077 51.9279V55.9279ZM37.9699 46.76L38.3268 53.1122L42.3205 52.8878L41.9636 46.5356L37.9699 46.76ZM40.3236 55H46.6758V51H40.3236V55ZM48.6758 53V26.3064H44.6758V53H48.6758ZM46.6758 24.3064H25.6207V28.3064H46.6758V24.3064ZM23.6207 26.3064V33.2296H27.6207V26.3064H23.6207ZM25.6207 35.2296H39.1103V31.2296H25.6207V35.2296ZM37.1103 33.2296V34.3716H41.1103V33.2296H37.1103ZM37.1103 34.3716C37.1103 38.7356 35.3969 41.3002 33.126 42.857C30.7411 44.4919 27.5321 45.1474 24.4787 45.1474V49.1474C27.9917 49.1474 32.0985 48.4111 35.3877 46.1562C38.7911 43.8231 41.1103 39.9998 41.1103 34.3716H37.1103ZM24.4787 45.1474C20.375 45.1474 17.0369 43.5579 14.6812 40.6228C12.2888 37.642 10.7766 33.0984 10.7766 27.0201H6.7766C6.7766 33.7176 8.44051 39.2377 11.5617 43.1265C14.7196 47.0611 19.2325 49.1474 24.4787 49.1474V45.1474ZM10.7766 27.0201C10.7766 20.7871 12.4014 16.3131 14.8434 13.4319C17.2606 10.5801 20.6273 9.10695 24.5501 9.10695V5.10695C19.5512 5.10695 15.0312 7.024 11.792 10.8456C8.57774 14.6379 6.7766 20.1204 6.7766 27.0201H10.7766ZM24.5501 9.10695C28.0359 9.10695 30.6878 9.96693 32.6266 11.375C34.5591 12.7784 35.9334 14.8347 36.6859 17.4999L40.5354 16.413C39.575 13.0115 37.7374 10.143 34.9771 8.13842C32.2231 6.13837 28.7012 5.10695 24.5501 5.10695V9.10695ZM38.6106 18.9565H46.4617V14.9565H38.6106V18.9565ZM48.4192 16.5465C47.2231 10.8359 44.3769 6.24186 40.232 3.08852C36.0984 -0.0561428 30.7996 -1.67351 24.8356 -1.67351V2.32649C30.0772 2.32649 34.4851 3.74248 37.8101 6.272C41.1237 8.79284 43.4877 12.5138 44.5042 17.3665L48.4192 16.5465ZM59.4946 1.25434H61.4946V-0.74566H59.4946V1.25434ZM51.358 1.25434V-0.74566H49.358V1.25434H51.358ZM51.358 53H49.358V55H51.358V53ZM86.1882 53V55H88.1882V53H86.1882ZM86.1882 46.0768H88.1882V44.0768H86.1882V46.0768ZM59.4946 46.0768H57.4946V48.0768H59.4946V46.0768ZM59.4946 -0.74566H51.358V3.25434H59.4946V-0.74566ZM49.358 1.25434V53H53.358V1.25434H49.358ZM51.358 55H86.1882V51H51.358V55ZM88.1882 53V46.0768H84.1882V53H88.1882ZM86.1882 44.0768H59.4946V48.0768H86.1882V44.0768ZM61.4946 46.0768V1.25434H57.4946V46.0768H61.4946ZM89.4257 53L87.5506 52.3043L86.5504 55H89.4257V53ZM97.705 53V55H99.121L99.5914 53.6644L97.705 53ZM101.702 41.6516V39.6516H100.286L99.8155 40.9872L101.702 41.6516ZM124.184 41.6516L126.067 40.9767L125.592 39.6516H124.184V41.6516ZM128.253 53L126.37 53.6749L126.845 55H128.253V53ZM137.103 53V55H139.993L138.975 52.2952L137.103 53ZM117.618 1.25434L119.49 0.549547L119.002 -0.74566H117.618V1.25434ZM108.625 1.25434V-0.74566H107.234L106.75 0.558617L108.625 1.25434ZM112.836 10.1046L114.719 9.42989L112.821 4.13368L110.95 9.43956L112.836 10.1046ZM121.686 34.7998V36.7998H124.528L123.569 34.1251L121.686 34.7998ZM104.129 34.7998L102.242 34.1347L101.303 36.7998H104.129V34.7998ZM89.4257 55H97.705V51H89.4257V55ZM99.5914 53.6644L103.588 42.316L99.8155 40.9872L95.8186 52.3356L99.5914 53.6644ZM101.702 43.6516H124.184V39.6516H101.702V43.6516ZM122.302 42.3266L126.37 53.6749L130.135 52.3251L126.067 40.9767L122.302 42.3266ZM128.253 55H137.103V51H128.253V55ZM138.975 52.2952L119.49 0.549547L115.746 1.95913L135.231 53.7048L138.975 52.2952ZM117.618 -0.74566H108.625V3.25434H117.618V-0.74566ZM106.75 0.558617L87.5506 52.3043L91.3008 53.6957L110.5 1.95006L106.75 0.558617ZM110.953 10.7794L119.804 35.4745L123.569 34.1251L114.719 9.42989L110.953 10.7794ZM121.686 32.7998H104.129V36.7998H121.686V32.7998ZM106.015 35.4649L114.722 10.7697L110.95 9.43956L102.242 34.1347L106.015 35.4649ZM159.512 30.3033L159.919 28.3451L159.909 28.343L159.512 30.3033ZM145.237 36.4414L147.195 36.0304L146.861 34.4414H145.237V36.4414ZM137.244 36.4414V34.4414H135.022L135.255 36.6508L137.244 36.4414ZM161.082 23.0232L160.673 24.9808L160.677 24.9817L161.082 23.0232ZM154.944 21.7385L155.354 19.7809L155.348 19.7798L154.944 21.7385ZM169.576 15.1008L167.651 15.6442L168.062 17.1008H169.576V15.1008ZM177.427 15.1008V17.1008H179.863L179.388 14.7111L177.427 15.1008ZM153.16 29.0186L152.76 30.9782L152.763 30.9789L153.16 29.0186ZM159.105 32.2615C161.784 32.8182 164.147 33.5759 165.805 34.6983C167.365 35.7549 168.218 37.0599 168.218 38.9395H172.218C172.218 35.466 170.466 33.0239 168.047 31.3862C165.726 29.8142 162.735 28.9304 159.919 28.3451L159.105 32.2615ZM168.218 38.9395C168.218 40.7791 167.411 42.2402 165.897 43.3104C164.322 44.4232 161.909 45.1474 158.798 45.1474V49.1474C162.468 49.1474 165.765 48.3013 168.205 46.5771C170.705 44.8102 172.218 42.1673 172.218 38.9395H168.218ZM158.798 45.1474C155.442 45.1474 152.898 44.3355 151.054 42.8948C149.22 41.462 147.87 39.2443 147.195 36.0304L143.28 36.8524C144.104 40.7758 145.858 43.9111 148.592 46.0469C151.316 48.1749 154.803 49.1474 158.798 49.1474V45.1474ZM145.237 34.4414H137.244V38.4414H145.237V34.4414ZM135.255 36.6508C135.876 42.5534 138.444 47.4236 142.57 50.8006C146.679 54.1633 152.186 55.9279 158.513 55.9279V51.9279C152.92 51.9279 148.364 50.3735 145.103 47.7052C141.86 45.0512 139.753 41.1781 139.233 36.232L135.255 36.6508ZM158.513 55.9279C163.833 55.9279 169.235 54.5085 173.367 51.6025C177.553 48.6582 180.426 44.1744 180.426 38.2971H176.426C176.426 42.6976 174.338 46.0291 171.066 48.3307C167.739 50.6707 163.185 51.9279 158.513 51.9279V55.9279ZM180.426 38.2971C180.426 32.3406 177.792 28.3594 174 25.7254C170.341 23.1844 165.657 21.9274 161.487 21.0647L160.677 24.9817C164.787 25.832 168.774 26.966 171.718 29.0107C174.528 30.9625 176.426 33.7617 176.426 38.2971H180.426ZM161.492 21.0656L155.354 19.7809L154.534 23.6961L160.673 24.9808L161.492 21.0656ZM155.348 19.7798C153.276 19.3521 151.681 18.6664 150.636 17.7686C149.663 16.9316 149.093 15.8552 149.093 14.3157H145.093C145.093 17.0585 146.2 19.2296 148.028 20.8015C149.786 22.3125 152.116 23.197 154.54 23.6972L155.348 19.7798ZM149.093 14.3157C149.093 12.5817 150.067 11.3467 151.758 10.4398C153.499 9.50659 155.726 9.10695 157.371 9.10695V5.10695C155.233 5.10695 152.321 5.59948 149.868 6.91454C147.367 8.25586 145.093 10.6252 145.093 14.3157H149.093ZM157.371 9.10695C161.905 9.10695 166.295 10.8431 167.651 15.6442L171.5 14.5573C169.43 7.22498 162.686 5.10695 157.371 5.10695V9.10695ZM169.576 17.1008H177.427V13.1008H169.576V17.1008ZM179.388 14.7111C178.26 9.02858 175.453 4.86697 171.522 2.15896C167.632 -0.521413 162.796 -1.67351 157.728 -1.67351V2.32649C162.224 2.32649 166.202 3.35127 169.253 5.45291C172.263 7.52691 174.524 10.7524 175.465 15.4904L179.388 14.7111ZM157.728 -1.67351C153.034 -1.67351 147.907 -0.460362 143.887 2.15666C139.811 4.81103 136.814 8.9741 136.814 14.6725H140.814C140.814 10.5928 142.884 7.58285 146.07 5.50874C149.313 3.39728 153.642 2.32649 157.728 2.32649V-1.67351ZM136.814 14.6725C136.814 19.6404 138.841 23.3927 141.921 26.0605C144.937 28.6737 148.887 30.1885 152.76 30.9782L153.559 27.0589C150.082 26.3498 146.858 25.0453 144.539 23.0371C142.284 21.0835 140.814 18.4122 140.814 14.6725H136.814ZM152.763 30.9789L159.116 32.2636L159.909 28.343L153.556 27.0583L152.763 30.9789ZM204 30.3033L204.407 28.3451L204.397 28.343L204 30.3033ZM189.726 36.4414L191.683 36.0304L191.349 34.4414H189.726V36.4414ZM181.732 36.4414V34.4414H179.51L179.743 36.6508L181.732 36.4414ZM205.571 23.0232L205.161 24.9808L205.165 24.9817L205.571 23.0232ZM199.433 21.7385L199.842 19.7809L199.837 19.7798L199.433 21.7385ZM214.064 15.1008L212.139 15.6442L212.551 17.1008H214.064V15.1008ZM221.915 15.1008V17.1008H224.352L223.877 14.7111L221.915 15.1008ZM197.648 29.0186L197.249 30.9782L197.252 30.9789L197.648 29.0186ZM203.594 32.2615C206.273 32.8182 208.636 33.5759 210.293 34.6983C211.854 35.7549 212.706 37.0599 212.706 38.9395H216.706C216.706 35.466 214.954 33.0239 212.536 31.3862C210.214 29.8142 207.224 28.9304 204.407 28.3451L203.594 32.2615ZM212.706 38.9395C212.706 40.7791 211.9 42.2402 210.385 43.3104C208.81 44.4232 206.398 45.1474 203.287 45.1474V49.1474C206.956 49.1474 210.254 48.3013 212.694 46.5771C215.194 44.8102 216.706 42.1673 216.706 38.9395H212.706ZM203.287 45.1474C199.931 45.1474 197.387 44.3355 195.543 42.8948C193.709 41.462 192.358 39.2443 191.683 36.0304L187.769 36.8524C188.592 40.7758 190.346 43.9111 193.08 46.0469C195.804 48.1749 199.291 49.1474 203.287 49.1474V45.1474ZM189.726 34.4414H181.732V38.4414H189.726V34.4414ZM179.743 36.6508C180.364 42.5534 182.932 47.4236 187.058 50.8006C191.167 54.1633 196.674 55.9279 203.001 55.9279V51.9279C197.409 51.9279 192.852 50.3735 189.592 47.7052C186.349 45.0512 184.242 41.1781 183.721 36.232L179.743 36.6508ZM203.001 55.9279C208.321 55.9279 213.724 54.5085 217.856 51.6025C222.042 48.6582 224.914 44.1744 224.914 38.2971H220.914C220.914 42.6976 218.827 46.0291 215.554 48.3307C212.228 50.6707 207.674 51.9279 203.001 51.9279V55.9279ZM224.914 38.2971C224.914 32.3406 222.28 28.3594 218.488 25.7254C214.83 23.1844 210.146 21.9274 205.976 21.0647L205.165 24.9817C209.275 25.832 213.263 26.966 216.206 29.0107C219.016 30.9625 220.914 33.7617 220.914 38.2971H224.914ZM205.98 21.0656L199.842 19.7809L199.023 23.6961L205.161 24.9808L205.98 21.0656ZM199.837 19.7798C197.764 19.3521 196.169 18.6664 195.125 17.7686C194.151 16.9316 193.582 15.8552 193.582 14.3157H189.582C189.582 17.0585 190.689 19.2296 192.517 20.8015C194.274 22.3125 196.604 23.197 199.028 23.6972L199.837 19.7798ZM193.582 14.3157C193.582 12.5817 194.555 11.3467 196.247 10.4398C197.987 9.50659 200.214 9.10695 201.859 9.10695V5.10695C199.721 5.10695 196.809 5.59948 194.357 6.91454C191.855 8.25586 189.582 10.6252 189.582 14.3157H193.582ZM201.859 9.10695C206.393 9.10695 210.784 10.8431 212.139 15.6442L215.989 14.5573C213.919 7.22498 207.175 5.10695 201.859 5.10695V9.10695ZM214.064 17.1008H221.915V13.1008H214.064V17.1008ZM223.877 14.7111C222.748 9.02858 219.941 4.86697 216.011 2.15896C212.12 -0.521413 207.284 -1.67351 202.216 -1.67351V2.32649C206.712 2.32649 210.691 3.35127 213.741 5.45291C216.752 7.52691 219.012 10.7524 219.954 15.4904L223.877 14.7111ZM202.216 -1.67351C197.523 -1.67351 192.395 -0.460362 188.376 2.15666C184.299 4.81103 181.302 8.9741 181.302 14.6725H185.302C185.302 10.5928 187.373 7.58285 190.558 5.50874C193.801 3.39728 198.131 2.32649 202.216 2.32649V-1.67351ZM181.302 14.6725C181.302 19.6404 183.329 23.3927 186.409 26.0605C189.426 28.6737 193.375 30.1885 197.249 30.9782L198.048 27.0589C194.57 26.3498 191.346 25.0453 189.028 23.0371C186.773 21.0835 185.302 18.4122 185.302 14.6725H181.302ZM197.252 30.9789L203.604 32.2636L204.397 28.343L198.045 27.0583L197.252 30.9789ZM239.315 53H237.315V55H239.315V53ZM247.452 53V55H249.452V53H247.452ZM247.452 8.17755V6.17755H245.452V8.17755H247.452ZM264.01 8.17755V10.1776H266.01V8.17755H264.01ZM264.01 1.25434H266.01V-0.74566H264.01V1.25434ZM222.685 1.25434V-0.74566H220.685V1.25434H222.685ZM222.685 8.17755H220.685V10.1776H222.685V8.17755ZM239.315 8.17755H241.315V6.17755H239.315V8.17755ZM239.315 55H247.452V51H239.315V55ZM249.452 53V8.17755H245.452V53H249.452ZM247.452 10.1776H264.01V6.17755H247.452V10.1776ZM266.01 8.17755V1.25434H262.01V8.17755H266.01ZM264.01 -0.74566H222.685V3.25434H264.01V-0.74566ZM220.685 1.25434V8.17755H224.685V1.25434H220.685ZM222.685 10.1776H239.315V6.17755H222.685V10.1776ZM237.315 8.17755V53H241.315V8.17755H237.315ZM256.855 53L254.98 52.3043L253.979 55H256.855V53ZM265.134 53V55H266.55L267.02 53.6644L265.134 53ZM269.131 41.6516V39.6516H267.715L267.244 40.9872L269.131 41.6516ZM291.613 41.6516L293.496 40.9767L293.021 39.6516H291.613V41.6516ZM295.682 53L293.799 53.6749L294.274 55H295.682V53ZM304.532 53V55H307.422L306.404 52.2952L304.532 53ZM285.047 1.25434L286.919 0.549547L286.431 -0.74566H285.047V1.25434ZM276.054 1.25434V-0.74566H274.663L274.179 0.558617L276.054 1.25434ZM280.265 10.1046L282.148 9.42989L280.25 4.13368L278.379 9.43956L280.265 10.1046ZM289.115 34.7998V36.7998H291.957L290.998 34.1251L289.115 34.7998ZM271.558 34.7998L269.671 34.1347L268.732 36.7998H271.558V34.7998ZM256.855 55H265.134V51H256.855V55ZM267.02 53.6644L271.017 42.316L267.244 40.9872L263.248 52.3356L267.02 53.6644ZM269.131 43.6516H291.613V39.6516H269.131V43.6516ZM289.731 42.3266L293.799 53.6749L297.564 52.3251L293.496 40.9767L289.731 42.3266ZM295.682 55H304.532V51H295.682V55ZM306.404 52.2952L286.919 0.549547L283.175 1.95913L302.66 53.7048L306.404 52.2952ZM285.047 -0.74566H276.054V3.25434H285.047V-0.74566ZM274.179 0.558617L254.98 52.3043L258.73 53.6957L277.929 1.95006L274.179 0.558617ZM278.382 10.7794L287.233 35.4745L290.998 34.1251L282.148 9.42989L278.382 10.7794ZM289.115 32.7998H271.558V36.7998H289.115V32.7998ZM273.444 35.4649L282.151 10.7697L278.379 9.43956L269.671 34.1347L273.444 35.4649ZM339.574 53L337.79 53.9037L338.345 55H339.574V53ZM348.71 53V55H351.986L350.489 52.0859L348.71 53ZM336.791 29.8037L336.202 27.8921L333.921 28.5942L335.012 30.7177L336.791 29.8037ZM308.098 1.25434V-0.74566H306.098V1.25434H308.098ZM308.098 53H306.098V55H308.098V53ZM316.235 53V55H318.235V53H316.235ZM316.235 31.2311V29.2311H314.235V31.2311H316.235ZM328.511 31.1598L330.295 30.256L329.698 29.0762L328.378 29.1642L328.511 31.1598ZM316.235 24.5934H314.235V26.5934H316.235V24.5934ZM316.235 7.96343V5.96343H314.235V7.96343H316.235ZM339.574 55H348.71V51H339.574V55ZM350.489 52.0859L338.569 28.8896L335.012 30.7177L346.931 53.9141L350.489 52.0859ZM337.379 31.7152C340.904 30.6304 343.81 28.8833 345.818 26.2278C347.829 23.5668 348.783 20.2006 348.783 16.1714H344.783C344.783 19.5649 343.988 22.0157 342.627 23.8155C341.262 25.6209 339.172 26.9785 336.202 27.8921L337.379 31.7152ZM348.783 16.1714C348.783 12.9472 348.222 10.1852 347.042 7.873C345.852 5.54059 344.089 3.77879 341.875 2.48834C337.552 -0.0306149 331.512 -0.74566 324.514 -0.74566V3.25434C331.435 3.25434 336.529 4.00245 339.861 5.94433C341.474 6.88429 342.668 8.10233 343.479 9.69098C344.3 11.2999 344.783 13.4002 344.783 16.1714H348.783ZM324.514 -0.74566H308.098V3.25434H324.514V-0.74566ZM306.098 1.25434V53H310.098V1.25434H306.098ZM308.098 55H316.235V51H308.098V55ZM318.235 53V31.2311H314.235V53H318.235ZM316.235 33.2311H325.157V29.2311H316.235V33.2311ZM325.157 33.2311C326.284 33.2311 327.495 33.2319 328.644 33.1553L328.378 29.1642C327.386 29.2303 326.313 29.2311 325.157 29.2311V33.2311ZM326.727 32.0635L337.79 53.9037L341.358 52.0963L330.295 30.256L326.727 32.0635ZM325.442 9.96343C329.147 9.96343 331.946 10.2209 333.802 11.1454C334.666 11.5755 335.279 12.1308 335.698 12.867C336.127 13.6211 336.432 14.707 336.432 16.3141H340.432C340.432 14.2098 340.032 12.3961 339.175 10.8887C338.306 9.36317 337.051 8.29472 335.586 7.56499C332.785 6.16991 329.088 5.96343 325.442 5.96343V9.96343ZM336.432 16.3141C336.432 17.861 336.15 18.9179 335.744 19.6588C335.35 20.379 334.772 20.927 333.947 21.3571C332.171 22.2838 329.417 22.5934 325.585 22.5934V26.5934C329.39 26.5934 333.059 26.3321 335.798 24.9034C337.23 24.1559 338.432 23.0801 339.253 21.5789C340.063 20.0982 340.432 18.3358 340.432 16.3141H336.432ZM325.585 22.5934H316.235V26.5934H325.585V22.5934ZM318.235 24.5934V7.96343H314.235V24.5934H318.235ZM316.235 9.96343H325.442V5.96343H316.235V9.96343Z" fill="white"/>
</svg>
