<svg width="1798" height="277" viewBox="0 0 1798 277" fill="none" xmlns="http://www.w3.org/2000/svg">
<path d="M204.553 239.23L207.862 239.044L207.295 228.958L201.777 237.42L204.553 239.23ZM206.394 272L203.085 272.186L203.26 275.314H206.394V272ZM239.163 272V275.314H242.478V272H239.163ZM239.163 134.294H242.478V130.979H239.163V134.294ZM130.545 134.294V130.979H127.23V134.294H130.545ZM130.545 170.009H127.23V173.323H130.545V170.009ZM200.134 170.009H203.449V166.695H200.134V170.009ZM197.557 86.0596L194.367 86.9602L195.049 89.3739H197.557V86.0596ZM238.059 86.0596V89.3739H242.139L241.303 85.3801L238.059 86.0596ZM126.495 -3.04516C87.1809 -3.04516 54.7727 11.0878 32.2193 35.9677C9.69665 60.8138 -2.74383 96.0912 -2.74383 137.976H3.88487C3.88487 97.3834 15.9296 63.8076 37.1305 40.4197C58.3008 17.0655 88.8546 3.58354 126.495 3.58354V-3.04516ZM-2.74383 137.976C-2.74383 179.6 8.54947 215.131 29.8912 240.315C51.2881 265.563 82.5313 280.101 121.708 280.101V273.472C84.2993 273.472 54.9737 259.659 34.9482 236.029C14.8676 212.334 3.88487 178.459 3.88487 137.976H-2.74383ZM121.708 280.101C158.843 280.101 189.943 267.7 207.329 241.041L201.777 237.42C186.025 261.572 157.476 273.472 121.708 273.472V280.101ZM201.244 239.416L203.085 272.186L209.703 271.814L207.862 239.044L201.244 239.416ZM206.394 275.314H239.163V268.686H206.394V275.314ZM242.478 272V134.294H235.849V272H242.478ZM239.163 130.979H130.545V137.608H239.163V130.979ZM127.23 134.294V170.009H133.859V134.294H127.23ZM130.545 173.323H200.134V166.695H130.545V173.323ZM196.82 170.009V175.9H203.449V170.009H196.82ZM196.82 175.9C196.82 200.627 186.92 216.061 173.223 225.451C159.336 234.97 141.21 238.493 124.654 238.493V245.122C141.972 245.122 161.586 241.465 176.971 230.918C192.545 220.241 203.449 202.721 203.449 175.9H196.82ZM124.654 238.493C101.483 238.493 82.2057 229.424 68.6487 212.532C55.0309 195.565 46.9641 170.416 46.9641 137.976H40.3354C40.3354 171.442 48.6536 198.21 63.4791 216.682C78.3655 235.229 99.5899 245.122 124.654 245.122V238.493ZM46.9641 137.976C46.9641 104.654 55.6548 79.8075 69.6048 63.3491C83.5136 46.9394 102.901 38.5624 125.022 38.5624V31.9337C101.118 31.9337 79.8191 41.0462 64.5481 59.0631C49.3184 77.0314 40.3354 103.549 40.3354 137.976H46.9641ZM125.022 38.5624C144.169 38.5624 159.373 43.299 170.802 51.5992C182.221 59.8919 190.121 71.9218 194.367 86.9602L200.747 85.159C196.156 68.9004 187.488 55.5246 174.697 46.2357C161.917 36.9544 145.272 31.9337 125.022 31.9337V38.5624ZM197.557 89.3739H238.059V82.7452H197.557V89.3739ZM241.303 85.3801C235.447 57.4226 221.608 35.2515 201.681 20.0915C181.772 4.94592 155.997 -3.04516 126.495 -3.04516V3.58354C154.8 3.58354 179.099 11.2409 197.667 25.3671C216.217 39.4789 229.257 60.2031 234.815 86.739L241.303 85.3801ZM305.293 5.05578H308.607V1.74143H305.293V5.05578ZM263.318 5.05578V1.74143H260.004V5.05578H263.318ZM263.318 272H260.004V275.314H263.318V272ZM442.999 272V275.314H446.313V272H442.999ZM442.999 236.285H446.313V232.97H442.999V236.285ZM305.293 236.285H301.978V239.599H305.293V236.285ZM305.293 1.74143H263.318V8.37013H305.293V1.74143ZM260.004 5.05578V272H266.632V5.05578H260.004ZM263.318 275.314H442.999V268.686H263.318V275.314ZM446.313 272V236.285H439.685V272H446.313ZM442.999 232.97H305.293V239.599H442.999V232.97ZM308.607 236.285V5.05578H301.978V236.285H308.607ZM459.7 272L456.593 270.847L454.935 275.314H459.7V272ZM502.411 272V275.314H504.758L505.537 273.101L502.411 272ZM523.03 213.456V210.142H520.684L519.904 212.355L523.03 213.456ZM639.013 213.456L642.133 212.338L641.346 210.142H639.013V213.456ZM660 272L656.88 273.118L657.668 275.314H660V272ZM705.657 272V275.314H710.447L708.759 270.832L705.657 272ZM605.139 5.05578L608.24 3.88781L607.432 1.74143H605.139V5.05578ZM558.746 5.05578V1.74143H556.44L555.638 3.90284L558.746 5.05578ZM580.469 50.7124L583.589 49.5943L580.444 40.8175L577.344 49.6103L580.469 50.7124ZM626.126 178.109V181.424H630.835L629.246 176.991L626.126 178.109ZM535.549 178.109L532.423 177.007L530.866 181.424H535.549V178.109ZM459.7 275.314H502.411V268.686H459.7V275.314ZM505.537 273.101L526.157 214.557L519.904 212.355L499.285 270.899L505.537 273.101ZM523.03 216.771H639.013V210.142H523.03V216.771ZM635.893 214.575L656.88 273.118L663.12 270.882L642.133 212.338L635.893 214.575ZM660 275.314H705.657V268.686H660V275.314ZM708.759 270.832L608.24 3.88781L602.037 6.22374L702.555 273.168L708.759 270.832ZM605.139 1.74143H558.746V8.37013H605.139V1.74143ZM555.638 3.90284L456.593 270.847L462.808 273.153L561.853 6.20871L555.638 3.90284ZM577.349 51.8306L623.006 179.227L629.246 176.991L583.589 49.5943L577.349 51.8306ZM626.126 174.795H535.549V181.424H626.126V174.795ZM538.675 179.211L583.595 51.8146L577.344 49.6103L532.423 177.007L538.675 179.211ZM821.26 154.913L821.934 151.668L821.926 151.666L821.917 151.664L821.26 154.913ZM747.62 186.578L750.864 185.897L750.311 183.264H747.62V186.578ZM706.382 186.578V183.264H702.7L703.086 186.925L706.382 186.578ZM829.36 117.356L828.681 120.601L828.689 120.602L829.36 117.356ZM797.695 110.729L798.374 107.485L798.365 107.483L797.695 110.729ZM873.176 76.4864L869.986 77.387L870.668 79.8007H873.176V76.4864ZM913.678 76.4864V79.8007H917.715L916.929 75.8407L913.678 76.4864ZM788.49 148.285L787.828 151.533L787.833 151.534L788.49 148.285ZM820.586 158.158C834.648 161.08 847.935 165.21 857.648 171.787C867.201 178.255 873.176 186.978 873.176 199.465H879.804C879.804 184.337 872.34 173.729 861.365 166.298C850.551 158.976 836.224 154.637 821.934 151.668L820.586 158.158ZM873.176 199.465C873.176 211.386 867.777 220.992 858.238 227.733C848.6 234.544 834.604 238.493 817.578 238.493V245.122C835.531 245.122 850.991 240.971 862.064 233.146C873.236 225.251 879.804 213.686 879.804 199.465H873.176ZM817.578 238.493C799.145 238.493 784.371 234.024 773.318 225.388C762.281 216.766 754.607 203.719 750.864 185.897L744.377 187.259C748.366 206.257 756.709 220.825 769.237 230.612C781.748 240.387 798.086 245.122 817.578 245.122V238.493ZM747.62 183.264H706.382V189.892H747.62V183.264ZM703.086 186.925C706.115 215.701 718.555 239.079 738.295 255.234C758.007 271.366 784.752 280.101 816.105 280.101V273.472C785.969 273.472 760.799 265.086 742.493 250.105C724.217 235.147 712.54 213.421 709.678 186.231L703.086 186.925ZM816.105 280.101C842.416 280.101 868.801 273.063 888.706 259.062C908.702 244.999 922.147 223.885 922.147 196.151H915.518C915.518 221.438 903.374 240.642 884.893 253.641C866.321 266.703 841.343 273.472 816.105 273.472V280.101ZM922.147 196.151C922.147 167.911 909.847 149.442 892.004 137.048C874.383 124.809 851.437 118.539 830.032 114.111L828.689 120.602C849.995 125.01 871.785 131.076 888.222 142.493C904.438 153.756 915.518 170.266 915.518 196.151H922.147ZM830.039 114.112L798.374 107.485L797.016 113.973L828.681 120.601L830.039 114.112ZM798.365 107.483C787.058 105.15 777.542 101.264 770.907 95.559C764.389 89.9546 760.508 82.4852 760.508 72.4362H753.879C753.879 84.4791 758.651 93.7628 766.585 100.585C774.401 107.306 785.136 111.521 797.026 113.975L798.365 107.483ZM760.508 72.4362C760.508 60.0657 767.807 51.7087 777.952 46.2694C788.178 40.7867 800.865 38.5624 810.214 38.5624V31.9337C800.048 31.9337 786.226 34.312 774.82 40.4275C763.333 46.5865 753.879 56.8235 753.879 72.4362H760.508ZM810.214 38.5624C834.972 38.5624 861.742 48.1874 869.986 77.387L876.366 75.5858C866.937 42.1915 836.267 31.9337 810.214 31.9337V38.5624ZM873.176 79.8007H913.678V73.172H873.176V79.8007ZM916.929 75.8407C911.434 48.1795 897.911 28.3496 879.245 15.4896C860.645 2.67537 837.198 -3.04516 812.055 -3.04516V3.58354C836.25 3.58354 858.276 9.09308 875.484 20.9482C892.625 32.7575 905.244 51.0362 910.427 77.1321L916.929 75.8407ZM812.055 -3.04516C788.907 -3.04516 763.853 2.96398 744.477 15.5795C725.007 28.2569 711.168 47.7143 711.168 74.2772H717.797C717.797 50.3968 730.1 32.8503 748.094 21.1345C766.183 9.35677 789.915 3.58354 812.055 3.58354V-3.04516ZM711.168 74.2772C711.168 97.7551 720.65 115.22 735.095 127.732C749.435 140.154 768.538 147.6 787.828 151.533L789.152 145.038C770.518 141.238 752.617 134.141 739.435 122.722C726.356 111.393 717.797 95.7196 717.797 74.2772H711.168ZM787.833 151.534L820.603 158.161L821.917 151.664L789.147 145.037L787.833 151.534ZM1050.77 154.913L1051.44 151.668L1051.43 151.666L1051.42 151.664L1050.77 154.913ZM977.126 186.578L980.37 185.897L979.817 183.264H977.126V186.578ZM935.888 186.578V183.264H932.206L932.592 186.925L935.888 186.578ZM1058.87 117.356L1058.19 120.601L1058.19 120.602L1058.87 117.356ZM1027.2 110.729L1027.88 107.485L1027.87 107.483L1027.2 110.729ZM1102.68 76.4864L1099.49 77.387L1100.17 79.8007H1102.68V76.4864ZM1143.18 76.4864V79.8007H1147.22L1146.43 75.8407L1143.18 76.4864ZM1018 148.285L1017.33 151.533L1017.34 151.534L1018 148.285ZM1050.09 158.158C1064.15 161.08 1077.44 165.21 1087.15 171.787C1096.71 178.255 1102.68 186.978 1102.68 199.465H1109.31C1109.31 184.337 1101.85 173.729 1090.87 166.298C1080.06 158.976 1065.73 154.637 1051.44 151.668L1050.09 158.158ZM1102.68 199.465C1102.68 211.386 1097.28 220.992 1087.74 227.733C1078.11 234.544 1064.11 238.493 1047.08 238.493V245.122C1065.04 245.122 1080.5 240.971 1091.57 233.146C1102.74 225.251 1109.31 213.686 1109.31 199.465H1102.68ZM1047.08 238.493C1028.65 238.493 1013.88 234.024 1002.82 225.388C991.786 216.766 984.112 203.719 980.37 185.897L973.883 187.259C977.872 206.257 986.215 220.825 998.742 230.612C1011.25 240.387 1027.59 245.122 1047.08 245.122V238.493ZM977.126 183.264H935.888V189.892H977.126V183.264ZM932.592 186.925C935.621 215.701 948.061 239.079 967.801 255.234C987.512 271.366 1014.26 280.101 1045.61 280.101V273.472C1015.48 273.472 990.305 265.086 971.999 250.105C953.723 235.147 942.046 213.421 939.184 186.231L932.592 186.925ZM1045.61 280.101C1071.92 280.101 1098.31 273.063 1118.21 259.062C1138.21 244.999 1151.65 223.885 1151.65 196.151H1145.02C1145.02 221.438 1132.88 240.642 1114.4 253.641C1095.83 266.703 1070.85 273.472 1045.61 273.472V280.101ZM1151.65 196.151C1151.65 167.911 1139.35 149.442 1121.51 137.048C1103.89 124.809 1080.94 118.539 1059.54 114.111L1058.19 120.602C1079.5 125.01 1101.29 131.076 1117.73 142.493C1133.94 153.756 1145.02 170.266 1145.02 196.151H1151.65ZM1059.55 114.112L1027.88 107.485L1026.52 113.973L1058.19 120.601L1059.55 114.112ZM1027.87 107.483C1016.56 105.15 1007.05 101.264 1000.41 95.559C993.895 89.9546 990.014 82.4852 990.014 72.4362H983.385C983.385 84.4791 988.156 93.7628 996.091 100.585C1003.91 107.306 1014.64 111.521 1026.53 113.975L1027.87 107.483ZM990.014 72.4362C990.014 60.0657 997.313 51.7087 1007.46 46.2694C1017.68 40.7867 1030.37 38.5624 1039.72 38.5624V31.9337C1029.55 31.9337 1015.73 34.312 1004.33 40.4275C992.838 46.5865 983.385 56.8235 983.385 72.4362H990.014ZM1039.72 38.5624C1064.48 38.5624 1091.25 48.1874 1099.49 77.387L1105.87 75.5858C1096.44 42.1915 1065.77 31.9337 1039.72 31.9337V38.5624ZM1102.68 79.8007H1143.18V73.172H1102.68V79.8007ZM1146.43 75.8407C1140.94 48.1795 1127.42 28.3496 1108.75 15.4896C1090.15 2.67537 1066.7 -3.04516 1041.56 -3.04516V3.58354C1065.76 3.58354 1087.78 9.09308 1104.99 20.9482C1122.13 32.7575 1134.75 51.0362 1139.93 77.1321L1146.43 75.8407ZM1041.56 -3.04516C1018.41 -3.04516 993.358 2.96398 973.983 15.5795C954.512 28.2569 940.674 47.7143 940.674 74.2772H947.303C947.303 50.3968 959.606 32.8503 977.6 21.1345C995.689 9.35677 1019.42 3.58354 1041.56 3.58354V-3.04516ZM940.674 74.2772C940.674 97.7551 950.156 115.22 964.6 127.732C978.941 140.154 998.044 147.6 1017.33 151.533L1018.66 145.038C1000.02 141.238 982.123 134.141 968.941 122.722C955.862 111.393 947.303 95.7196 947.303 74.2772H940.674ZM1017.34 151.534L1050.11 158.161L1051.42 151.664L1018.65 145.037L1017.34 151.534ZM1232.95 272H1229.63V275.314H1232.95V272ZM1274.92 272V275.314H1278.24V272H1274.92ZM1274.92 40.7711V37.4567H1271.61V40.7711H1274.92ZM1360.34 40.7711V44.0854H1363.66V40.7711H1360.34ZM1360.34 5.05578H1363.66V1.74143H1360.34V5.05578ZM1147.16 5.05578V1.74143H1143.84V5.05578H1147.16ZM1147.16 40.7711H1143.84V44.0854H1147.16V40.7711ZM1232.95 40.7711H1236.26V37.4567H1232.95V40.7711ZM1232.95 275.314H1274.92V268.686H1232.95V275.314ZM1278.24 272V40.7711H1271.61V272H1278.24ZM1274.92 44.0854H1360.34V37.4567H1274.92V44.0854ZM1363.66 40.7711V5.05578H1357.03V40.7711H1363.66ZM1360.34 1.74143H1147.16V8.37013H1360.34V1.74143ZM1143.84 5.05578V40.7711H1150.47V5.05578H1143.84ZM1147.16 44.0854H1232.95V37.4567H1147.16V44.0854ZM1229.63 40.7711V272H1236.26V40.7711H1229.63ZM1323.43 272L1320.32 270.847L1318.66 275.314H1323.43V272ZM1366.14 272V275.314H1368.49L1369.27 273.101L1366.14 272ZM1386.76 213.456V210.142H1384.41L1383.63 212.355L1386.76 213.456ZM1502.74 213.456L1505.86 212.338L1505.07 210.142H1502.74V213.456ZM1523.73 272L1520.61 273.118L1521.4 275.314H1523.73V272ZM1569.39 272V275.314H1574.18L1572.49 270.832L1569.39 272ZM1468.87 5.05578L1471.97 3.88781L1471.16 1.74143H1468.87V5.05578ZM1422.47 5.05578V1.74143H1420.17L1419.37 3.90284L1422.47 5.05578ZM1444.2 50.7124L1447.32 49.5943L1444.17 40.8175L1441.07 49.6103L1444.2 50.7124ZM1489.85 178.109V181.424H1494.56L1492.97 176.991L1489.85 178.109ZM1399.28 178.109L1396.15 177.007L1394.59 181.424H1399.28V178.109ZM1323.43 275.314H1366.14V268.686H1323.43V275.314ZM1369.27 273.101L1389.89 214.557L1383.63 212.355L1363.01 270.899L1369.27 273.101ZM1386.76 216.771H1502.74V210.142H1386.76V216.771ZM1499.62 214.575L1520.61 273.118L1526.85 270.882L1505.86 212.338L1499.62 214.575ZM1523.73 275.314H1569.39V268.686H1523.73V275.314ZM1572.49 270.832L1471.97 3.88781L1465.77 6.22374L1566.28 273.168L1572.49 270.832ZM1468.87 1.74143H1422.47V8.37013H1468.87V1.74143ZM1419.37 3.90284L1320.32 270.847L1326.54 273.153L1425.58 6.20871L1419.37 3.90284ZM1441.08 51.8306L1486.73 179.227L1492.97 176.991L1447.32 49.5943L1441.08 51.8306ZM1489.85 174.795H1399.28V181.424H1489.85V174.795ZM1402.4 179.211L1447.32 51.8146L1441.07 49.6103L1396.15 177.007L1402.4 179.211ZM1750.16 272L1747.2 273.498L1748.12 275.314H1750.16V272ZM1797.29 272V275.314H1802.72L1800.24 270.485L1797.29 272ZM1735.8 152.335L1734.83 149.168L1731.04 150.331L1732.85 153.85L1735.8 152.335ZM1587.78 5.05578V1.74143H1584.47V5.05578H1587.78ZM1587.78 272H1584.47V275.314H1587.78V272ZM1629.76 272V275.314H1633.07V272H1629.76ZM1629.76 159.699V156.385H1626.44V159.699H1629.76ZM1693.09 159.331L1696.05 157.833L1695.06 155.878L1692.87 156.024L1693.09 159.331ZM1629.76 125.457H1626.44V128.771H1629.76V125.457ZM1629.76 39.6665V36.3521H1626.44V39.6665H1629.76ZM1750.16 275.314H1797.29V268.686H1750.16V275.314ZM1800.24 270.485L1738.75 150.821L1732.85 153.85L1794.34 273.515L1800.24 270.485ZM1736.77 155.503C1753.99 150.206 1767.55 141.875 1776.78 129.665C1786.02 117.445 1790.66 101.682 1790.66 82.0094H1784.03C1784.03 100.629 1779.65 114.875 1771.49 125.667C1763.33 136.469 1751.12 144.155 1734.83 149.168L1736.77 155.503ZM1790.66 82.0094C1790.66 66.1696 1787.91 53.0796 1782.45 42.3829C1776.97 31.6527 1768.87 23.516 1758.5 17.4724C1737.94 5.48807 1708.43 1.74143 1672.47 1.74143V8.37013C1708.31 8.37013 1736.24 12.1716 1755.16 23.1996C1764.54 28.6623 1771.7 35.8979 1776.54 45.3956C1781.41 54.9269 1784.03 66.9204 1784.03 82.0094H1790.66ZM1672.47 1.74143H1587.78V8.37013H1672.47V1.74143ZM1584.47 5.05578V272H1591.1V5.05578H1584.47ZM1587.78 275.314H1629.76V268.686H1587.78V275.314ZM1633.07 272V159.699H1626.44V272H1633.07ZM1629.76 163.014H1675.78V156.385H1629.76V163.014ZM1675.78 163.014C1681.65 163.014 1687.66 163.015 1693.31 162.638L1692.87 156.024C1687.48 156.384 1681.7 156.385 1675.78 156.385V163.014ZM1690.13 160.829L1747.2 273.498L1753.12 270.502L1696.05 157.833L1690.13 160.829ZM1677.26 42.9808C1696.27 42.9808 1712.28 44.2197 1723.51 49.8131C1729.01 52.5564 1733.3 56.3195 1736.25 61.4991C1739.21 66.7086 1740.95 73.5846 1740.95 82.7458H1747.58C1747.58 72.7606 1745.69 64.6785 1742.01 58.2207C1738.32 51.733 1732.97 47.1195 1726.46 43.8796C1713.67 37.5065 1696.17 36.3521 1677.26 36.3521V42.9808ZM1740.95 82.7458C1740.95 91.5573 1739.35 98.2446 1736.55 103.362C1733.76 108.445 1729.69 112.196 1724.37 114.97C1713.52 120.63 1697.71 122.142 1677.99 122.142V128.771C1697.67 128.771 1715 127.338 1727.44 120.847C1733.76 117.547 1738.87 112.921 1742.36 106.544C1745.83 100.201 1747.58 92.3441 1747.58 82.7458H1740.95ZM1677.99 122.142H1629.76V128.771H1677.99V122.142ZM1633.07 125.457V39.6665H1626.44V125.457H1633.07ZM1629.76 42.9808H1677.26V36.3521H1629.76V42.9808Z" fill="white"/>
</svg>
