<svg width="41" height="144" viewBox="0 0 41 144" fill="none" xmlns="http://www.w3.org/2000/svg">
<path d="M38.8249 142.196C39.491 142.196 39.9351 141.487 39.6242 140.911C38.0922 138.03 31.5202 136.302 26.4357 134.219C20.6407 131.87 22.5724 90.5009 22.7278 85.3381C22.8832 80.1752 28.2341 74.8572 33.2742 72.1982C38.3365 69.5393 36.6935 63.7781 36.6935 63.7781L32.2307 1.93457H9.49483L5.03203 63.7781C5.03203 63.7781 3.38901 69.5393 8.45129 72.1982C13.5136 74.8572 18.8645 80.1752 18.9977 85.3381C19.1309 90.5009 21.0848 131.87 15.2898 134.219C10.2053 136.302 3.63325 138.03 2.10124 140.911C1.7904 141.487 2.23446 142.196 2.90055 142.196H38.8249Z" stroke="#303030" stroke-width="2" stroke-miterlimit="10"/>
</svg>
