<svg width="68" height="141" viewBox="0 0 68 141" fill="none" xmlns="http://www.w3.org/2000/svg">
<path d="M57.7504 139.196C58.4554 139.196 58.896 138.424 58.4995 137.829C57.3098 136.088 51.3834 134.148 45.8535 132.891C33.8464 130.18 36.314 123.853 35.8734 99.2512C35.7412 91.3813 36.6004 71.7837 38.0765 67.8157C39.5526 63.8477 52.1765 57.3886 61.716 50.1801C71.2556 42.9715 64.0734 32.9853 58.0368 18.1494C52.0222 3.31341 53.0357 1.83643 53.0357 1.83643H14.8554C14.8554 1.83643 15.8909 3.31341 9.85434 18.1494C3.83979 32.9853 -3.3645 42.9715 6.17506 50.1801C15.7146 57.3886 28.3386 63.8477 29.8147 67.8157C31.2908 71.7837 32.1501 91.3813 32.0179 99.2512C31.5772 123.853 34.0447 130.202 22.0376 132.891C16.5078 134.148 10.5814 136.088 9.39166 137.829C8.9951 138.402 9.4357 139.196 10.1407 139.196H57.7504Z" stroke="#303030" stroke-width="2" stroke-miterlimit="10"/>
</svg>
