<svg width="63" height="135" viewBox="0 0 63 135" fill="none" xmlns="http://www.w3.org/2000/svg">
<path d="M50.704 1.64062H11.9113C11.9113 1.64062 -1.94487 52.7151 2.0521 61.6697C6.04907 70.6244 29.6533 66.4013 29.6533 82.8955C29.6533 107.659 31.3409 123.335 24.213 127.005C21.2153 128.553 20.0384 128.531 15.7972 129.659C13.7099 130.211 11.9779 130.808 11.023 131.648C10.4235 132.179 10.8009 133.196 11.6225 133.196H51.0149C51.8365 133.196 52.214 132.201 51.6144 131.648C50.6596 130.808 48.9276 130.211 46.8403 129.659C42.599 128.531 41.4 128.553 38.4245 127.005C31.3187 123.335 32.9841 107.659 32.9841 82.8955C32.9841 66.4013 56.5884 70.6244 60.5854 61.6697C64.5601 52.7151 50.704 1.64062 50.704 1.64062Z" stroke="#303030" stroke-width="2" stroke-miterlimit="10"/>
</svg>
