<svg width="63" height="141" viewBox="0 0 63 141" fill="none" xmlns="http://www.w3.org/2000/svg">
<path d="M50.2558 1.83643C50.2558 1.83643 66.4506 33.0303 59.3488 54.1438C52.2469 75.2573 34.061 60.1256 33.176 85.5592C32.2911 110.993 31.7601 130.644 37.7557 132.86C45.0345 135.563 52.8665 135.385 54.3488 137.844C54.7028 138.443 54.2824 139.196 53.5745 139.196H8.75105C8.06521 139.196 7.62273 138.443 7.97671 137.844C9.45903 135.363 17.2909 135.54 24.5698 132.86C30.5654 130.644 30.0344 110.993 29.1494 85.5592C28.2645 60.1256 10.0785 75.2351 2.97665 54.1438C-4.12518 33.0525 12.0697 1.83643 12.0697 1.83643H50.2558V1.83643Z" stroke="#303030" stroke-width="2" stroke-miterlimit="10"/>
</svg>
