<svg width="65" height="139" viewBox="0 0 65 139" fill="none" xmlns="http://www.w3.org/2000/svg">
<path d="M63.6727 32.751C63.122 16.3761 51.3359 12.393 52.9882 1.77148H12.475C14.1272 12.393 2.34119 16.3761 1.79044 32.751C1.23969 49.1259 18.2028 56.5389 25.8032 64.3944C33.4035 72.2499 31.1785 109.093 30.5396 120.6C29.9889 130.447 27.4554 131.332 18.5333 132.771C15.1186 133.324 12.6071 134.475 11.1091 135.603C10.4262 136.112 10.8008 137.196 11.6379 137.196H53.8254C54.6625 137.196 55.037 136.112 54.3541 135.603C52.856 134.475 50.3446 133.324 46.9299 132.771C38.0078 131.332 35.4743 130.447 34.9236 120.6C34.2847 109.093 32.0597 72.2499 39.66 64.3944C47.2604 56.5389 64.2235 49.1259 63.6727 32.751Z" stroke="#303030" stroke-width="2" stroke-miterlimit="10"/>
</svg>
