<svg width="36" height="135" viewBox="0 0 36 135" fill="none" xmlns="http://www.w3.org/2000/svg">
<path d="M34.5736 131.605C32.6663 130.256 27.9316 130.256 24.2291 128.311C19.4496 125.813 19.5169 110.051 19.4496 89.4254C19.3823 66.9652 23.3091 71.3865 29.8165 60.7754C36.5482 49.7885 30.0858 1.64062 30.0858 1.64062H5.94123C5.94123 1.64062 -0.54368 49.7885 6.2105 60.7754C12.7179 71.3865 16.6447 66.9652 16.5774 89.4254C16.5101 110.051 16.5774 125.791 11.7979 128.311C8.07296 130.256 3.36073 130.256 1.4534 131.605C0.757787 132.091 1.11681 133.196 1.9695 133.196H34.0799C34.9102 133.174 35.2692 132.091 34.5736 131.605Z" stroke="#303030" stroke-width="2" stroke-miterlimit="10"/>
</svg>
