<svg width="66" height="136" viewBox="0 0 66 136" fill="none" xmlns="http://www.w3.org/2000/svg">
<path d="M52.87 1.67334H13.8363C13.8363 1.67334 -6.15494 35.6751 5.62798 44.385C17.8963 53.4697 24.3394 59.1587 28.2891 70.1619C31.3562 78.7174 32.0403 116.887 30.3853 123.502C28.7304 130.117 19.9263 130.007 14.9837 130.448C12.2696 130.69 10.7692 131.793 9.97485 132.741C9.48942 133.314 9.88659 134.196 10.6368 134.196H56.0474C56.7976 134.196 57.1948 133.314 56.7094 132.741C55.915 131.793 54.4146 130.69 51.7005 130.448C46.7579 130.007 37.9538 130.117 36.2989 123.502C34.644 116.887 35.3059 78.7174 38.3951 70.1619C42.3669 59.1367 48.7879 53.4477 61.0562 44.385C72.8612 35.6751 52.87 1.67334 52.87 1.67334Z" stroke="#303030" stroke-width="2" stroke-miterlimit="10"/>
</svg>
