<svg width="59" height="145" viewBox="0 0 59 145" fill="none" xmlns="http://www.w3.org/2000/svg">
<path d="M34.1014 75.6138C37.0772 70.3236 52.4849 63.3802 56.122 55.3568C60.0896 46.6279 50.3909 19.0748 48.6275 10.9191C47.371 5.05582 47.0404 1 47.0404 1H11.9486C11.9486 1 11.64 5.05582 10.3615 10.9191C8.59809 19.0748 -1.07862 46.6279 2.86701 55.3568C6.50404 63.3802 21.9118 70.3236 24.8876 75.6138C27.158 79.6696 27.202 82.6674 27.5327 95.7827C27.8633 108.898 27.8633 127.965 25.9676 134.952C24.6451 139.824 11.0228 137.002 5.73255 141.08C5.73255 141.08 5.40188 141.322 5.09328 141.874C4.76264 142.447 5.18149 143.196 5.84276 143.196H53.1021C53.7854 143.196 54.2042 142.447 53.8516 141.874C53.543 141.345 53.2123 141.08 53.2123 141.08C47.9221 137.002 34.2998 139.824 32.9772 134.952C31.0815 127.965 31.0816 108.898 31.4122 95.7827C31.7869 82.6674 31.831 79.6476 34.1014 75.6138Z" stroke="#303030" stroke-width="2" stroke-miterlimit="10"/>
</svg>
