<svg width="46" height="140" viewBox="0 0 46 140" fill="none" xmlns="http://www.w3.org/2000/svg">
<path d="M36.7761 134.56C29.8868 132.907 25.5127 134.163 25.3158 127.508C24.9659 116.665 24.3098 99.3652 28.8808 73.603C30.696 63.3113 33.1455 52.9756 37.3228 40.0173C41.8063 26.1335 45.8087 17.9134 44.8026 13.616C42.9436 5.70441 40.669 1.80371 40.669 1.80371H5.71974C5.71974 1.80371 3.44519 5.70441 1.58618 13.616C0.580135 17.9134 4.58248 26.1335 9.06596 40.0173C13.2433 52.9756 15.6928 63.3113 17.508 73.603C22.079 99.3872 21.4229 116.665 21.073 127.508C20.8542 134.185 16.4801 132.907 9.61273 134.56C6.70393 135.265 4.93239 135.772 3.99196 136.697C3.42332 137.248 3.817 138.196 4.60434 138.196H41.7844C42.5718 138.196 42.9655 137.226 42.3968 136.697C41.4564 135.772 39.6849 135.265 36.7761 134.56Z" stroke="#303030" stroke-width="2" stroke-miterlimit="10"/>
</svg>
