<svg width="61" height="131" viewBox="0 0 61 131" fill="none" xmlns="http://www.w3.org/2000/svg">
<path d="M51.5494 129.196C52.2307 129.196 52.6704 128.42 52.2967 127.844C50.4285 124.896 42.3839 124.43 37.7902 122.546C32.581 120.395 32.6469 113.457 32.515 107.915C32.3612 102.373 32.0094 79.7398 32.5809 70.4293C33.1744 61.1189 40.9552 57.9267 40.9552 57.9267C49.4613 53.4932 55.4178 48.3946 55.3299 42.6975C55.2859 39.594 54.7365 37.3772 58.4071 31.6136C62.0777 25.85 56.363 14.7661 53.7034 10.9089C51.0659 7.07387 51.5055 1.50977 51.5055 1.50977H9.65615C9.65615 1.50977 10.0957 7.05171 7.45818 10.9089C4.82061 14.7439 -0.916172 25.85 2.75444 31.6136C6.42505 37.3772 5.87555 39.594 5.83159 42.6975C5.76566 48.3946 11.7003 53.4932 20.2064 57.9267C20.2064 57.9267 27.9871 61.0967 28.5806 70.4293C29.174 79.7398 28.8004 102.373 28.6466 107.915C28.4927 113.457 28.5806 120.418 23.3715 122.546C18.7777 124.43 10.7331 124.896 8.86486 127.844C8.4912 128.42 8.93077 129.196 9.61214 129.196H51.5494Z" stroke="#303030" stroke-width="2" stroke-miterlimit="10"/>
</svg>
